# MagicaVoxel @ Ephtracy

# group
o 

# material
mtllib Hacha.mtl
usemtl palette

# normals
vn -1 0 0
vn 1 0 0
vn 0 0 1
vn 0 0 -1
vn 0 -1 0
vn 0 1 0

# texcoords
vt 0.00195312 0.5
vt 0.00585938 0.5
vt 0.00976562 0.5
vt 0.0332031 0.5
vt 0.0371094 0.5

# verts
v -0.2 1.1 -1
v -0.2 1.1 -1.1
v -0.2 1.1 -1.2
v -0.2 1.2 -1
v -0.2 1.2 -1.1
v -0.2 1.2 -1.2
v -0.2 1.5 -1.1
v -0.2 1.5 -1.2
v -0.2 1.7 -1
v -0.2 1.7 -1.1
v -0.2 1.7 -1.2
v -0.2 1.8 -1
v -0.2 1.8 -1.1
v -0.2 1.8 -1.2
v -0.2 1.9 -1.1
v -0.2 1.9 -1.2
v -0.2 2 -1
v -0.2 2 -1.1
v -0.2 2 -1.2
v -0.2 2.1 -1
v -0.2 2.1 -1.2
v -0.0999999 0.9 -0.9
v -0.0999999 0.9 -1
v -0.0999999 0.9 -1.1
v -0.0999999 0.9 -1.2
v -0.0999999 0.9 -1.3
v -0.0999999 1 -0.9
v -0.0999999 1 -1
v -0.0999999 1 -1.1
v -0.0999999 1 -1.2
v -0.0999999 1 -1.3
v -0.0999999 1.1 -0.9
v -0.0999999 1.1 -1
v -0.0999999 1.1 -1.1
v -0.0999999 1.1 -1.2
v -0.0999999 1.1 -1.3
v -0.0999999 1.2 -1
v -0.0999999 1.2 -1.1
v -0.0999999 1.2 -1.2
v -0.0999999 1.3 -1
v -0.0999999 1.3 -1.1
v -0.0999999 1.3 -1.2
v -0.0999999 1.4 -1
v -0.0999999 1.4 -1.1
v -0.0999999 1.5 -1
v -0.0999999 1.5 -1.1
v -0.0999999 1.5 -1.2
v -0.0999999 1.6 -1
v -0.0999999 1.6 -1.1
v -0.0999999 1.7 -1
v -0.0999999 1.7 -1.1
v -0.0999999 1.7 -1.2
v -0.0999999 1.8 -1
v -0.0999999 1.8 -1.1
v -0.0999999 1.8 -1.2
v -0.0999999 1.9 -1
v -0.0999999 1.9 -1.1
v -0.0999999 2 -0.9
v -0.0999999 2 -1
v -0.0999999 2 -1.1
v -0.0999999 2.1 -0.6
v -0.0999999 2.1 -0.8
v -0.0999999 2.1 -0.9
v -0.0999999 2.1 -1
v -0.0999999 2.1 -1.2
v -0.0999999 2.2 -0.5
v -0.0999999 2.2 -0.6
v -0.0999999 2.2 -0.7
v -0.0999999 2.2 -0.8
v -0.0999999 2.2 -0.9
v -0.0999999 2.2 -1
v -0.0999999 2.2 -1.2
v -0.0999999 2.3 -0.4
v -0.0999999 2.3 -0.5
v -0.0999999 2.3 -0.6
v -0.0999999 2.3 -0.9
v -0.0999999 2.3 -1
v -0.0999999 2.3 -1.1
v -0.0999999 2.4 -0.7
v -0.0999999 2.4 -0.9
v -0.0999999 2.4 -1
v -0.0999999 2.4 -1.1
v -0.0999999 2.5 -0.6
v -0.0999999 2.5 -0.7
v -0.0999999 2.5 -0.8
v -0.0999999 2.5 -0.9
v -0.0999999 2.6 -0.6
v -0.0999999 2.6 -0.7
v -0.0999999 2.6 -0.8
v -0.0999999 2.6 -0.9
v -0.0999999 2.6 -1
v -0.0999999 2.6 -1.1
v -0.0999999 2.7 -0.7
v -0.0999999 2.7 -0.9
v -0.0999999 2.7 -1
v -0.0999999 2.7 -1.1
v -0.0999999 2.8 -0.4
v -0.0999999 2.8 -0.5
v -0.0999999 2.8 -0.6
v -0.0999999 2.8 -0.9
v -0.0999999 2.8 -1
v -0.0999999 2.8 -1.1
v -0.0999999 2.8 -1.2
v -0.0999999 2.9 -0.5
v -0.0999999 2.9 -0.6
v -0.0999999 2.9 -0.7
v -0.0999999 2.9 -0.8
v -0.0999999 2.9 -1
v -0.0999999 2.9 -1.1
v -0.0999999 3 -0.6
v -0.0999999 3 -0.8
v 5.96046e-08 0.9 -0.9
v 5.96046e-08 0.9 -1
v 5.96046e-08 0.9 -1.1
v 5.96046e-08 0.9 -1.2
v 5.96046e-08 0.9 -1.3
v 5.96046e-08 1 -0.9
v 5.96046e-08 1 -1
v 5.96046e-08 1 -1.1
v 5.96046e-08 1 -1.2
v 5.96046e-08 1 -1.3
v 5.96046e-08 1.1 -0.9
v 5.96046e-08 1.1 -1
v 5.96046e-08 1.1 -1.1
v 5.96046e-08 1.1 -1.2
v 5.96046e-08 1.1 -1.3
v 5.96046e-08 1.2 -1.1
v 5.96046e-08 1.2 -1.2
v 5.96046e-08 1.3 -1
v 5.96046e-08 1.3 -1.1
v 5.96046e-08 1.3 -1.2
v 5.96046e-08 1.4 -1
v 5.96046e-08 1.4 -1.1
v 5.96046e-08 1.5 -1
v 5.96046e-08 1.5 -1.1
v 5.96046e-08 1.6 -1.1
v 5.96046e-08 1.6 -1.2
v 5.96046e-08 1.7 -1
v 5.96046e-08 1.7 -1.1
v 5.96046e-08 1.8 -1
v 5.96046e-08 1.8 -1.1
v 5.96046e-08 1.9 -1
v 5.96046e-08 1.9 -1.1
v 5.96046e-08 1.9 -1.2
v 5.96046e-08 2 -0.9
v 5.96046e-08 2 -1
v 5.96046e-08 2 -1.1
v 5.96046e-08 2 -1.2
v 5.96046e-08 2.1 -0.6
v 5.96046e-08 2.1 -0.8
v 5.96046e-08 2.1 -0.9
v 5.96046e-08 2.1 -1
v 5.96046e-08 2.1 -1.2
v 5.96046e-08 2.2 -0.5
v 5.96046e-08 2.2 -0.6
v 5.96046e-08 2.2 -0.7
v 5.96046e-08 2.2 -0.8
v 5.96046e-08 2.2 -0.9
v 5.96046e-08 2.2 -1
v 5.96046e-08 2.2 -1.2
v 5.96046e-08 2.3 -0.4
v 5.96046e-08 2.3 -0.5
v 5.96046e-08 2.3 -0.6
v 5.96046e-08 2.3 -0.9
v 5.96046e-08 2.3 -1
v 5.96046e-08 2.3 -1.1
v 5.96046e-08 2.4 -0.7
v 5.96046e-08 2.4 -0.9
v 5.96046e-08 2.4 -1
v 5.96046e-08 2.4 -1.1
v 5.96046e-08 2.5 -0.6
v 5.96046e-08 2.5 -0.7
v 5.96046e-08 2.5 -0.8
v 5.96046e-08 2.5 -0.9
v 5.96046e-08 2.6 -0.6
v 5.96046e-08 2.6 -0.7
v 5.96046e-08 2.6 -0.8
v 5.96046e-08 2.6 -0.9
v 5.96046e-08 2.6 -1
v 5.96046e-08 2.6 -1.1
v 5.96046e-08 2.7 -0.7
v 5.96046e-08 2.7 -0.9
v 5.96046e-08 2.7 -1
v 5.96046e-08 2.7 -1.1
v 5.96046e-08 2.8 -0.4
v 5.96046e-08 2.8 -0.5
v 5.96046e-08 2.8 -0.6
v 5.96046e-08 2.8 -0.9
v 5.96046e-08 2.8 -1
v 5.96046e-08 2.8 -1.1
v 5.96046e-08 2.8 -1.2
v 5.96046e-08 2.9 -0.5
v 5.96046e-08 2.9 -0.6
v 5.96046e-08 2.9 -0.7
v 5.96046e-08 2.9 -0.8
v 5.96046e-08 2.9 -1
v 5.96046e-08 2.9 -1.1
v 5.96046e-08 3 -0.6
v 5.96046e-08 3 -0.8
v 0.1 1 -1
v 0.1 1 -1.2
v 0.1 1.1 -1
v 0.1 1.1 -1.1
v 0.1 1.2 -1.1
v 0.1 1.2 -1.2
v 0.1 1.5 -1
v 0.1 1.5 -1.1
v 0.1 1.6 -1.1
v 0.1 1.6 -1.2
v 0.1 1.7 -1
v 0.1 1.7 -1.1
v 0.1 1.8 -1.1
v 0.1 1.8 -1.2
v 0.1 1.9 -1.1
v 0.1 1.9 -1.2
v 0.1 2 -1
v 0.1 2 -1.2
v 0.1 2.1 -1
v 0.1 2.1 -1.2
v -0.0999999 2.3 -0.4
v -0.0999999 2.8 -0.4
v 5.96046e-08 2.3 -0.4
v 5.96046e-08 2.8 -0.4
v -0.0999999 2.2 -0.5
v -0.0999999 2.3 -0.5
v -0.0999999 2.8 -0.5
v -0.0999999 2.9 -0.5
v 5.96046e-08 2.2 -0.5
v 5.96046e-08 2.3 -0.5
v 5.96046e-08 2.8 -0.5
v 5.96046e-08 2.9 -0.5
v -0.0999999 2.1 -0.6
v -0.0999999 2.2 -0.6
v -0.0999999 2.9 -0.6
v -0.0999999 3 -0.6
v 5.96046e-08 2.1 -0.6
v 5.96046e-08 2.2 -0.6
v 5.96046e-08 2.9 -0.6
v 5.96046e-08 3 -0.6
v -0.0999999 0.9 -0.9
v -0.0999999 1 -0.9
v -0.0999999 1.1 -0.9
v -0.0999999 2 -0.9
v -0.0999999 2.1 -0.9
v -0.0999999 2.2 -0.9
v -0.0999999 2.3 -0.9
v -0.0999999 2.4 -0.9
v -0.0999999 2.7 -0.9
v -0.0999999 2.8 -0.9
v 5.96046e-08 0.9 -0.9
v 5.96046e-08 1 -0.9
v 5.96046e-08 1.1 -0.9
v 5.96046e-08 2 -0.9
v 5.96046e-08 2.1 -0.9
v 5.96046e-08 2.2 -0.9
v 5.96046e-08 2.3 -0.9
v 5.96046e-08 2.4 -0.9
v 5.96046e-08 2.7 -0.9
v 5.96046e-08 2.8 -0.9
v -0.2 1.1 -1
v -0.2 1.2 -1
v -0.2 1.7 -1
v -0.2 1.8 -1
v -0.2 2 -1
v -0.2 2.1 -1
v -0.0999999 1.1 -1
v -0.0999999 1.2 -1
v -0.0999999 1.3 -1
v -0.0999999 1.4 -1
v -0.0999999 1.5 -1
v -0.0999999 1.6 -1
v -0.0999999 1.7 -1
v -0.0999999 1.8 -1
v -0.0999999 1.9 -1
v -0.0999999 2 -1
v -0.0999999 2.1 -1
v -0.0999999 2.8 -1
v -0.0999999 2.9 -1
v 5.96046e-08 1 -1
v 5.96046e-08 1.1 -1
v 5.96046e-08 1.3 -1
v 5.96046e-08 1.4 -1
v 5.96046e-08 1.5 -1
v 5.96046e-08 1.6 -1
v 5.96046e-08 1.7 -1
v 5.96046e-08 1.8 -1
v 5.96046e-08 1.9 -1
v 5.96046e-08 2 -1
v 5.96046e-08 2.1 -1
v 5.96046e-08 2.8 -1
v 5.96046e-08 2.9 -1
v 0.1 1 -1
v 0.1 1.1 -1
v 0.1 1.5 -1
v 0.1 1.7 -1
v 0.1 2 -1
v 0.1 2.1 -1
v -0.2 1.5 -1.1
v -0.2 1.7 -1.1
v -0.2 1.8 -1.1
v -0.2 1.9 -1.1
v -0.2 2 -1.1
v -0.0999999 1.5 -1.1
v -0.0999999 1.6 -1.1
v -0.0999999 1.7 -1.1
v -0.0999999 1.8 -1.1
v -0.0999999 1.9 -1.1
v -0.0999999 2 -1.1
v 5.96046e-08 1.1 -1.1
v 5.96046e-08 1.2 -1.1
v 5.96046e-08 1.7 -1.1
v 5.96046e-08 1.8 -1.1
v 5.96046e-08 1.9 -1.1
v 0.1 1.1 -1.1
v 0.1 1.2 -1.1
v 0.1 1.7 -1.1
v 0.1 1.8 -1.1
v 0.1 1.9 -1.1
v -0.0999999 2.2 -0.7
v -0.0999999 2.4 -0.7
v -0.0999999 2.7 -0.7
v -0.0999999 2.9 -0.7
v 5.96046e-08 2.2 -0.7
v 5.96046e-08 2.4 -0.7
v 5.96046e-08 2.7 -0.7
v 5.96046e-08 2.9 -0.7
v -0.0999999 2.1 -0.8
v -0.0999999 2.2 -0.8
v -0.0999999 2.9 -0.8
v -0.0999999 3 -0.8
v 5.96046e-08 2.1 -0.8
v 5.96046e-08 2.2 -0.8
v 5.96046e-08 2.9 -0.8
v 5.96046e-08 3 -0.8
v -0.2 1.7 -1.1
v -0.2 1.8 -1.1
v -0.0999999 1.7 -1.1
v -0.0999999 1.8 -1.1
v -0.0999999 2.8 -1.1
v -0.0999999 2.9 -1.1
v 5.96046e-08 1.5 -1.1
v 5.96046e-08 1.6 -1.1
v 5.96046e-08 2.8 -1.1
v 5.96046e-08 2.9 -1.1
v 0.1 1.5 -1.1
v 0.1 1.6 -1.1
v -0.2 1.1 -1.2
v -0.2 1.2 -1.2
v -0.2 1.5 -1.2
v -0.2 1.7 -1.2
v -0.2 1.8 -1.2
v -0.2 1.9 -1.2
v -0.2 2 -1.2
v -0.2 2.1 -1.2
v -0.0999999 1.1 -1.2
v -0.0999999 1.2 -1.2
v -0.0999999 1.3 -1.2
v -0.0999999 1.5 -1.2
v -0.0999999 1.7 -1.2
v -0.0999999 1.8 -1.2
v -0.0999999 1.9 -1.2
v -0.0999999 2 -1.2
v -0.0999999 2.1 -1.2
v -0.0999999 2.2 -1.2
v -0.0999999 2.8 -1.2
v 5.96046e-08 1 -1.2
v 5.96046e-08 1.1 -1.2
v 5.96046e-08 1.2 -1.2
v 5.96046e-08 1.3 -1.2
v 5.96046e-08 1.6 -1.2
v 5.96046e-08 1.8 -1.2
v 5.96046e-08 1.9 -1.2
v 5.96046e-08 2 -1.2
v 5.96046e-08 2.1 -1.2
v 5.96046e-08 2.2 -1.2
v 5.96046e-08 2.8 -1.2
v 0.1 1 -1.2
v 0.1 1.2 -1.2
v 0.1 1.6 -1.2
v 0.1 1.8 -1.2
v 0.1 1.9 -1.2
v 0.1 2 -1.2
v 0.1 2.1 -1.2
v -0.0999999 0.9 -1.3
v -0.0999999 1 -1.3
v -0.0999999 1.1 -1.3
v 5.96046e-08 0.9 -1.3
v 5.96046e-08 1 -1.3
v 5.96046e-08 1.1 -1.3
v -0.0999999 0.9 -0.9
v 5.96046e-08 0.9 -0.9
v -0.0999999 0.9 -1
v 5.96046e-08 0.9 -1
v -0.0999999 0.9 -1.1
v 5.96046e-08 0.9 -1.1
v -0.0999999 0.9 -1.2
v 5.96046e-08 0.9 -1.2
v -0.0999999 0.9 -1.3
v 5.96046e-08 0.9 -1.3
v 5.96046e-08 1 -1
v 0.1 1 -1
v 5.96046e-08 1 -1.1
v 5.96046e-08 1 -1.2
v 0.1 1 -1.2
v -0.2 1.1 -1
v -0.0999999 1.1 -1
v -0.2 1.1 -1.1
v -0.0999999 1.1 -1.1
v -0.2 1.1 -1.2
v -0.0999999 1.1 -1.2
v 5.96046e-08 1.5 -1
v 0.1 1.5 -1
v -0.2 1.5 -1.1
v -0.0999999 1.5 -1.1
v 5.96046e-08 1.5 -1.1
v 0.1 1.5 -1.1
v -0.2 1.5 -1.2
v -0.0999999 1.5 -1.2
v 5.96046e-08 1.6 -1.1
v 0.1 1.6 -1.1
v 5.96046e-08 1.6 -1.2
v 0.1 1.6 -1.2
v -0.2 1.7 -1
v -0.0999999 1.7 -1
v -0.2 1.7 -1.1
v -0.0999999 1.7 -1.1
v -0.2 1.8 -1.1
v -0.0999999 1.8 -1.1
v -0.2 1.8 -1.2
v -0.0999999 1.8 -1.2
v -0.0999999 2 -0.9
v 5.96046e-08 2 -0.9
v -0.2 2 -1
v -0.0999999 2 -1
v 5.96046e-08 2 -1
v 0.1 2 -1
v -0.2 2 -1.1
v -0.0999999 2 -1.1
v 5.96046e-08 2 -1.1
v 5.96046e-08 2 -1.2
v 0.1 2 -1.2
v -0.0999999 2.1 -0.6
v 5.96046e-08 2.1 -0.6
v -0.0999999 2.1 -0.8
v 5.96046e-08 2.1 -0.8
v -0.0999999 2.2 -0.5
v 5.96046e-08 2.2 -0.5
v -0.0999999 2.2 -0.6
v 5.96046e-08 2.2 -0.6
v -0.0999999 2.3 -0.4
v 5.96046e-08 2.3 -0.4
v -0.0999999 2.3 -0.5
v 5.96046e-08 2.3 -0.5
v -0.0999999 2.4 -0.7
v 5.96046e-08 2.4 -0.7
v -0.0999999 2.4 -0.9
v 5.96046e-08 2.4 -0.9
v -0.0999999 2.9 -0.7
v 5.96046e-08 2.9 -0.7
v -0.0999999 2.9 -0.8
v 5.96046e-08 2.9 -0.8
v -0.0999999 1.1 -0.9
v 5.96046e-08 1.1 -0.9
v -0.0999999 1.1 -1
v 5.96046e-08 1.1 -1
v 0.1 1.1 -1
v 5.96046e-08 1.1 -1.1
v 0.1 1.1 -1.1
v -0.0999999 1.1 -1.2
v 5.96046e-08 1.1 -1.2
v -0.0999999 1.1 -1.3
v 5.96046e-08 1.1 -1.3
v -0.2 1.2 -1
v -0.0999999 1.2 -1
v -0.2 1.2 -1.1
v -0.0999999 1.2 -1.1
v 5.96046e-08 1.2 -1.1
v 0.1 1.2 -1.1
v -0.2 1.2 -1.2
v -0.0999999 1.2 -1.2
v 5.96046e-08 1.2 -1.2
v 0.1 1.2 -1.2
v 5.96046e-08 1.7 -1
v 0.1 1.7 -1
v -0.2 1.7 -1.1
v -0.0999999 1.7 -1.1
v 5.96046e-08 1.7 -1.1
v 0.1 1.7 -1.1
v -0.2 1.7 -1.2
v -0.0999999 1.7 -1.2
v -0.2 1.8 -1
v -0.0999999 1.8 -1
v -0.2 1.8 -1.1
v -0.0999999 1.8 -1.1
v 5.96046e-08 1.9 -1.1
v 0.1 1.9 -1.1
v 5.96046e-08 1.9 -1.2
v 0.1 1.9 -1.2
v -0.2 2.1 -1
v -0.0999999 2.1 -1
v 5.96046e-08 2.1 -1
v 0.1 2.1 -1
v -0.2 2.1 -1.2
v -0.0999999 2.1 -1.2
v 5.96046e-08 2.1 -1.2
v 0.1 2.1 -1.2
v -0.0999999 2.2 -0.7
v 5.96046e-08 2.2 -0.7
v -0.0999999 2.2 -0.8
v 5.96046e-08 2.2 -0.8
v -0.0999999 2.7 -0.7
v 5.96046e-08 2.7 -0.7
v -0.0999999 2.7 -0.9
v 5.96046e-08 2.7 -0.9
v -0.0999999 2.8 -0.4
v 5.96046e-08 2.8 -0.4
v -0.0999999 2.8 -0.5
v 5.96046e-08 2.8 -0.5
v -0.0999999 2.8 -0.9
v 5.96046e-08 2.8 -0.9
v -0.0999999 2.8 -1
v 5.96046e-08 2.8 -1
v -0.0999999 2.8 -1.1
v 5.96046e-08 2.8 -1.1
v -0.0999999 2.8 -1.2
v 5.96046e-08 2.8 -1.2
v -0.0999999 2.9 -0.5
v 5.96046e-08 2.9 -0.5
v -0.0999999 2.9 -0.6
v 5.96046e-08 2.9 -0.6
v -0.0999999 2.9 -1
v 5.96046e-08 2.9 -1
v -0.0999999 2.9 -1.1
v 5.96046e-08 2.9 -1.1
v -0.0999999 3 -0.6
v 5.96046e-08 3 -0.6
v -0.0999999 3 -0.8
v 5.96046e-08 3 -0.8

# faces
f 4/1/1 2/1/1 1/1/1
f 5/4/1 3/4/1 2/4/1
f 5/1/1 2/1/1 4/1/1
f 6/4/1 3/4/1 5/4/1
f 10/1/1 8/1/1 7/1/1
f 11/1/1 8/1/1 10/1/1
f 12/1/1 10/1/1 9/1/1
f 13/1/1 10/1/1 12/1/1
f 15/1/1 14/1/1 13/1/1
f 16/1/1 14/1/1 15/1/1
f 18/4/1 16/4/1 15/4/1
f 19/4/1 16/4/1 18/4/1
f 20/1/1 18/1/1 17/1/1
f 20/1/1 19/1/1 18/1/1
f 21/1/1 19/1/1 20/1/1
f 27/1/1 23/1/1 22/1/1
f 28/4/1 24/4/1 23/4/1
f 28/1/1 23/1/1 27/1/1
f 29/1/1 25/1/1 24/1/1
f 29/4/1 24/4/1 28/4/1
f 30/4/1 26/4/1 25/4/1
f 30/1/1 25/1/1 29/1/1
f 31/4/1 26/4/1 30/4/1
f 32/4/1 28/4/1 27/4/1
f 33/1/1 29/1/1 28/1/1
f 33/4/1 28/4/1 32/4/1
f 33/1/1 30/1/1 29/1/1
f 33/1/1 31/1/1 30/1/1
f 34/1/1 31/1/1 33/1/1
f 35/1/1 31/1/1 34/1/1
f 36/1/1 31/1/1 35/1/1
f 40/1/1 38/1/1 37/1/1
f 41/4/1 39/4/1 38/4/1
f 41/1/1 38/1/1 40/1/1
f 42/4/1 39/4/1 41/4/1
f 43/4/1 41/4/1 40/4/1
f 44/1/1 42/1/1 41/1/1
f 44/4/1 41/4/1 43/4/1
f 45/1/1 44/1/1 43/1/1
f 46/1/1 42/1/1 44/1/1
f 46/1/1 44/1/1 45/1/1
f 47/1/1 42/1/1 46/1/1
f 48/4/1 46/4/1 45/4/1
f 49/4/1 46/4/1 48/4/1
f 50/1/1 49/1/1 48/1/1
f 51/1/1 49/1/1 50/1/1
f 54/1/1 52/1/1 51/1/1
f 55/1/1 52/1/1 54/1/1
f 56/1/1 54/1/1 53/1/1
f 57/1/1 54/1/1 56/1/1
f 59/4/1 57/4/1 56/4/1
f 60/4/1 57/4/1 59/4/1
f 63/1/1 59/1/1 58/1/1
f 64/1/1 59/1/1 63/1/1
f 67/3/1 62/3/1 61/3/1
f 68/3/1 62/3/1 67/3/1
f 69/3/1 62/3/1 68/3/1
f 70/4/1 64/4/1 63/4/1
f 71/1/1 65/1/1 64/1/1
f 71/4/1 64/4/1 70/4/1
f 72/1/1 65/1/1 71/1/1
f 74/3/1 67/3/1 66/3/1
f 75/2/1 68/2/1 67/2/1
f 75/3/1 67/3/1 74/3/1
f 76/1/1 71/1/1 70/1/1
f 77/2/1 72/2/1 71/2/1
f 77/1/1 71/1/1 76/1/1
f 78/2/1 72/2/1 77/2/1
f 79/2/1 68/2/1 75/2/1
f 79/2/1 75/2/1 74/2/1
f 80/4/1 77/4/1 76/4/1
f 81/5/1 78/5/1 77/5/1
f 81/4/1 77/4/1 80/4/1
f 82/2/1 72/2/1 78/2/1
f 82/5/1 78/5/1 81/5/1
f 83/2/1 81/2/1 80/2/1
f 83/2/1 80/2/1 79/2/1
f 83/2/1 82/2/1 81/2/1
f 83/2/1 79/2/1 74/2/1
f 84/2/1 82/2/1 83/2/1
f 85/2/1 82/2/1 84/2/1
f 86/2/1 82/2/1 85/2/1
f 87/2/1 83/2/1 74/2/1
f 87/5/1 84/5/1 83/5/1
f 88/2/1 85/2/1 84/2/1
f 88/5/1 84/5/1 87/5/1
f 89/5/1 86/5/1 85/5/1
f 89/2/1 85/2/1 88/2/1
f 90/2/1 82/2/1 86/2/1
f 90/5/1 86/5/1 89/5/1
f 91/2/1 82/2/1 90/2/1
f 92/2/1 72/2/1 82/2/1
f 92/2/1 82/2/1 91/2/1
f 93/2/1 91/2/1 90/2/1
f 93/2/1 89/2/1 88/2/1
f 93/2/1 88/2/1 87/2/1
f 93/2/1 90/2/1 89/2/1
f 94/2/1 91/2/1 93/2/1
f 95/5/1 92/5/1 91/5/1
f 95/2/1 91/2/1 94/2/1
f 96/2/1 72/2/1 92/2/1
f 96/5/1 92/5/1 95/5/1
f 97/3/1 74/3/1 73/3/1
f 98/2/1 87/2/1 74/2/1
f 98/3/1 74/3/1 97/3/1
f 98/2/1 93/2/1 87/2/1
f 99/2/1 93/2/1 98/2/1
f 100/2/1 95/2/1 94/2/1
f 100/2/1 96/2/1 95/2/1
f 101/2/1 96/2/1 100/2/1
f 102/2/1 72/2/1 96/2/1
f 102/2/1 96/2/1 101/2/1
f 103/2/1 72/2/1 102/2/1
f 104/3/1 99/3/1 98/3/1
f 105/2/1 93/2/1 99/2/1
f 105/3/1 99/3/1 104/3/1
f 106/2/1 93/2/1 105/2/1
f 108/2/1 102/2/1 101/2/1
f 109/2/1 102/2/1 108/2/1
f 110/3/1 107/3/1 106/3/1
f 110/3/1 106/3/1 105/3/1
f 111/3/1 107/3/1 110/3/1
f 112/1/2 113/1/2 117/1/2
f 113/4/2 114/4/2 118/4/2
f 117/1/2 113/1/2 118/1/2
f 114/1/2 115/1/2 119/1/2
f 118/4/2 114/4/2 119/4/2
f 115/4/2 116/4/2 120/4/2
f 119/1/2 115/1/2 120/1/2
f 120/4/2 116/4/2 121/4/2
f 117/4/2 118/4/2 122/4/2
f 122/4/2 118/4/2 123/4/2
f 120/1/2 121/1/2 125/1/2
f 125/1/2 121/1/2 126/1/2
f 123/1/2 124/1/2 127/1/2
f 123/1/2 127/1/2 129/1/2
f 127/4/2 128/4/2 130/4/2
f 129/1/2 127/1/2 130/1/2
f 130/4/2 128/4/2 131/4/2
f 129/4/2 130/4/2 132/4/2
f 130/1/2 131/1/2 133/1/2
f 132/4/2 130/4/2 133/4/2
f 132/1/2 133/1/2 134/1/2
f 133/1/2 131/1/2 135/1/2
f 134/1/2 133/1/2 135/1/2
f 135/1/2 131/1/2 136/1/2
f 136/1/2 131/1/2 137/1/2
f 138/4/2 139/4/2 140/4/2
f 140/4/2 139/4/2 141/4/2
f 140/1/2 141/1/2 142/1/2
f 142/1/2 141/1/2 143/1/2
f 142/4/2 143/4/2 146/4/2
f 143/1/2 144/1/2 147/1/2
f 146/4/2 143/4/2 147/4/2
f 147/1/2 144/1/2 148/1/2
f 145/1/2 146/1/2 151/1/2
f 151/1/2 146/1/2 152/1/2
f 149/3/2 150/3/2 155/3/2
f 155/3/2 150/3/2 156/3/2
f 156/3/2 150/3/2 157/3/2
f 151/4/2 152/4/2 158/4/2
f 152/1/2 153/1/2 159/1/2
f 158/4/2 152/4/2 159/4/2
f 159/1/2 153/1/2 160/1/2
f 154/3/2 155/3/2 162/3/2
f 155/2/2 156/2/2 163/2/2
f 162/3/2 155/3/2 163/3/2
f 158/1/2 159/1/2 164/1/2
f 159/2/2 160/2/2 165/2/2
f 164/1/2 159/1/2 165/1/2
f 165/2/2 160/2/2 166/2/2
f 163/2/2 156/2/2 167/2/2
f 162/2/2 163/2/2 167/2/2
f 164/4/2 165/4/2 168/4/2
f 165/5/2 166/5/2 169/5/2
f 168/4/2 165/4/2 169/4/2
f 166/2/2 160/2/2 170/2/2
f 169/5/2 166/5/2 170/5/2
f 168/2/2 169/2/2 171/2/2
f 167/2/2 168/2/2 171/2/2
f 169/2/2 170/2/2 171/2/2
f 162/2/2 167/2/2 171/2/2
f 171/2/2 170/2/2 172/2/2
f 172/2/2 170/2/2 173/2/2
f 173/2/2 170/2/2 174/2/2
f 162/2/2 171/2/2 175/2/2
f 171/5/2 172/5/2 175/5/2
f 172/2/2 173/2/2 176/2/2
f 175/5/2 172/5/2 176/5/2
f 173/5/2 174/5/2 177/5/2
f 176/2/2 173/2/2 177/2/2
f 174/2/2 170/2/2 178/2/2
f 177/5/2 174/5/2 178/5/2
f 178/2/2 170/2/2 179/2/2
f 170/2/2 160/2/2 180/2/2
f 179/2/2 170/2/2 180/2/2
f 178/2/2 179/2/2 181/2/2
f 176/2/2 177/2/2 181/2/2
f 175/2/2 176/2/2 181/2/2
f 177/2/2 178/2/2 181/2/2
f 181/2/2 179/2/2 182/2/2
f 179/5/2 180/5/2 183/5/2
f 182/2/2 179/2/2 183/2/2
f 180/2/2 160/2/2 184/2/2
f 183/5/2 180/5/2 184/5/2
f 161/3/2 162/3/2 185/3/2
f 162/2/2 175/2/2 186/2/2
f 185/3/2 162/3/2 186/3/2
f 175/2/2 181/2/2 186/2/2
f 186/2/2 181/2/2 187/2/2
f 182/2/2 183/2/2 188/2/2
f 183/2/2 184/2/2 188/2/2
f 188/2/2 184/2/2 189/2/2
f 184/2/2 160/2/2 190/2/2
f 189/2/2 184/2/2 190/2/2
f 190/2/2 160/2/2 191/2/2
f 186/3/2 187/3/2 192/3/2
f 187/2/2 181/2/2 193/2/2
f 192/3/2 187/3/2 193/3/2
f 193/2/2 181/2/2 194/2/2
f 189/2/2 190/2/2 196/2/2
f 196/2/2 190/2/2 197/2/2
f 194/3/2 195/3/2 198/3/2
f 193/3/2 194/3/2 198/3/2
f 198/3/2 195/3/2 199/3/2
f 200/1/2 201/1/2 202/1/2
f 202/1/2 201/1/2 203/1/2
f 203/1/2 201/1/2 204/1/2
f 204/1/2 201/1/2 205/1/2
f 206/1/2 207/1/2 208/1/2
f 206/1/2 208/1/2 210/1/2
f 208/1/2 209/1/2 210/1/2
f 210/1/2 209/1/2 211/1/2
f 211/1/2 209/1/2 212/1/2
f 212/1/2 209/1/2 213/1/2
f 212/4/2 213/4/2 214/4/2
f 214/4/2 213/4/2 215/4/2
f 216/1/2 217/1/2 218/1/2
f 218/1/2 217/1/2 219/1/2
f 222/3/3 221/3/3 220/3/3
f 223/3/3 221/3/3 222/3/3
f 228/3/3 225/3/3 224/3/3
f 229/3/3 225/3/3 228/3/3
f 230/3/3 227/3/3 226/3/3
f 231/3/3 227/3/3 230/3/3
f 236/3/3 233/3/3 232/3/3
f 237/3/3 233/3/3 236/3/3
f 238/3/3 235/3/3 234/3/3
f 239/3/3 235/3/3 238/3/3
f 250/1/3 241/1/3 240/1/3
f 251/4/3 242/4/3 241/4/3
f 251/1/3 241/1/3 250/1/3
f 252/4/3 242/4/3 251/4/3
f 253/1/3 244/1/3 243/1/3
f 254/4/3 245/4/3 244/4/3
f 254/1/3 244/1/3 253/1/3
f 255/1/3 246/1/3 245/1/3
f 255/4/3 245/4/3 254/4/3
f 256/4/3 247/4/3 246/4/3
f 256/1/3 246/1/3 255/1/3
f 257/4/3 247/4/3 256/4/3
f 258/2/3 249/2/3 248/2/3
f 259/2/3 249/2/3 258/2/3
f 266/1/3 261/1/3 260/1/3
f 267/1/3 261/1/3 266/1/3
f 272/1/3 263/1/3 262/1/3
f 273/1/3 263/1/3 272/1/3
f 275/1/3 265/1/3 264/1/3
f 276/1/3 265/1/3 275/1/3
f 280/1/3 267/1/3 266/1/3
f 280/1/3 268/1/3 267/1/3
f 281/4/3 269/4/3 268/4/3
f 281/1/3 268/1/3 280/1/3
f 282/1/3 270/1/3 269/1/3
f 282/4/3 269/4/3 281/4/3
f 283/4/3 271/4/3 270/4/3
f 283/1/3 270/1/3 282/1/3
f 284/1/3 272/1/3 271/1/3
f 284/4/3 271/4/3 283/4/3
f 285/4/3 273/4/3 272/4/3
f 285/1/3 272/1/3 284/1/3
f 286/1/3 274/1/3 273/1/3
f 286/4/3 273/4/3 285/4/3
f 287/4/3 275/4/3 274/4/3
f 287/1/3 274/1/3 286/1/3
f 288/4/3 275/4/3 287/4/3
f 290/2/3 278/2/3 277/2/3
f 291/2/3 278/2/3 290/2/3
f 292/1/3 280/1/3 279/1/3
f 293/1/3 280/1/3 292/1/3
f 294/1/3 285/1/3 284/1/3
f 294/1/3 284/1/3 283/1/3
f 295/1/3 285/1/3 294/1/3
f 296/1/3 289/1/3 288/1/3
f 297/1/3 289/1/3 296/1/3
f 303/1/3 299/1/3 298/1/3
f 304/1/3 299/1/3 303/1/3
f 305/1/3 299/1/3 304/1/3
f 306/1/3 301/1/3 300/1/3
f 307/4/3 302/4/3 301/4/3
f 307/1/3 301/1/3 306/1/3
f 308/4/3 302/4/3 307/4/3
f 314/1/3 310/1/3 309/1/3
f 315/1/3 310/1/3 314/1/3
f 316/1/3 312/1/3 311/1/3
f 317/4/3 313/4/3 312/4/3
f 317/1/3 312/1/3 316/1/3
f 318/4/3 313/4/3 317/4/3
f 319/2/4 320/2/4 323/2/4
f 323/2/4 320/2/4 324/2/4
f 321/2/4 322/2/4 325/2/4
f 325/2/4 322/2/4 326/2/4
f 327/3/4 328/3/4 331/3/4
f 331/3/4 328/3/4 332/3/4
f 329/3/4 330/3/4 333/3/4
f 333/3/4 330/3/4 334/3/4
f 335/1/4 336/1/4 337/1/4
f 337/1/4 336/1/4 338/1/4
f 339/2/4 340/2/4 343/2/4
f 343/2/4 340/2/4 344/2/4
f 341/1/4 342/1/4 345/1/4
f 345/1/4 342/1/4 346/1/4
f 347/4/4 348/4/4 355/4/4
f 355/4/4 348/4/4 356/4/4
f 349/1/4 350/1/4 358/1/4
f 358/1/4 350/1/4 359/1/4
f 351/1/4 352/1/4 360/1/4
f 352/4/4 353/4/4 361/4/4
f 360/1/4 352/1/4 361/1/4
f 353/1/4 354/1/4 362/1/4
f 361/4/4 353/4/4 362/4/4
f 362/1/4 354/1/4 363/1/4
f 355/1/4 356/1/4 367/1/4
f 356/4/4 357/4/4 368/4/4
f 367/1/4 356/1/4 368/1/4
f 360/1/4 361/1/4 369/1/4
f 368/4/4 357/4/4 369/4/4
f 358/1/4 359/1/4 369/1/4
f 359/1/4 360/1/4 369/1/4
f 363/1/4 364/1/4 369/1/4
f 362/1/4 363/1/4 369/1/4
f 361/1/4 362/1/4 369/1/4
f 357/1/4 358/1/4 369/1/4
f 369/1/4 364/1/4 370/1/4
f 370/1/4 364/1/4 371/1/4
f 371/1/4 364/1/4 372/1/4
f 372/1/4 364/1/4 373/1/4
f 373/1/4 364/1/4 374/1/4
f 364/2/4 365/2/4 375/2/4
f 374/1/4 364/1/4 375/1/4
f 375/2/4 365/2/4 376/2/4
f 367/1/4 368/1/4 377/1/4
f 366/1/4 367/1/4 377/1/4
f 377/1/4 368/1/4 378/1/4
f 370/1/4 371/1/4 379/1/4
f 371/4/4 372/4/4 380/4/4
f 379/1/4 371/1/4 380/1/4
f 380/4/4 372/4/4 381/4/4
f 373/1/4 374/1/4 382/1/4
f 382/1/4 374/1/4 383/1/4
f 384/4/4 385/4/4 387/4/4
f 385/1/4 386/1/4 388/1/4
f 387/4/4 385/4/4 388/4/4
f 388/1/4 386/1/4 389/1/4
f 392/1/5 391/1/5 390/1/5
f 393/1/5 391/1/5 392/1/5
f 394/4/5 393/4/5 392/4/5
f 395/4/5 393/4/5 394/4/5
f 396/1/5 395/1/5 394/1/5
f 397/1/5 395/1/5 396/1/5
f 398/4/5 397/4/5 396/4/5
f 399/4/5 397/4/5 398/4/5
f 402/1/5 401/1/5 400/1/5
f 403/1/5 401/1/5 402/1/5
f 404/1/5 401/1/5 403/1/5
f 407/1/5 406/1/5 405/1/5
f 408/1/5 406/1/5 407/1/5
f 409/4/5 408/4/5 407/4/5
f 410/4/5 408/4/5 409/4/5
f 415/1/5 412/1/5 411/1/5
f 416/1/5 412/1/5 415/1/5
f 417/1/5 414/1/5 413/1/5
f 418/1/5 414/1/5 417/1/5
f 421/1/5 420/1/5 419/1/5
f 422/1/5 420/1/5 421/1/5
f 425/1/5 424/1/5 423/1/5
f 426/1/5 424/1/5 425/1/5
f 429/1/5 428/1/5 427/1/5
f 430/1/5 428/1/5 429/1/5
f 434/1/5 432/1/5 431/1/5
f 435/1/5 432/1/5 434/1/5
f 437/1/5 434/1/5 433/1/5
f 438/1/5 434/1/5 437/1/5
f 439/1/5 436/1/5 435/1/5
f 440/1/5 436/1/5 439/1/5
f 441/1/5 436/1/5 440/1/5
f 444/3/5 443/3/5 442/3/5
f 445/3/5 443/3/5 444/3/5
f 448/3/5 447/3/5 446/3/5
f 449/3/5 447/3/5 448/3/5
f 452/3/5 451/3/5 450/3/5
f 453/3/5 451/3/5 452/3/5
f 456/2/5 455/2/5 454/2/5
f 457/2/5 455/2/5 456/2/5
f 460/3/5 459/3/5 458/3/5
f 461/3/5 459/3/5 460/3/5
f 462/4/6 463/4/6 464/4/6
f 464/4/6 463/4/6 465/4/6
f 465/1/6 466/1/6 467/1/6
f 467/1/6 466/1/6 468/1/6
f 469/1/6 470/1/6 471/1/6
f 471/1/6 470/1/6 472/1/6
f 473/1/6 474/1/6 475/1/6
f 475/1/6 474/1/6 476/1/6
f 475/4/6 476/4/6 479/4/6
f 479/4/6 476/4/6 480/4/6
f 477/1/6 478/1/6 481/1/6
f 481/1/6 478/1/6 482/1/6
f 483/1/6 484/1/6 487/1/6
f 487/1/6 484/1/6 488/1/6
f 485/1/6 486/1/6 489/1/6
f 489/1/6 486/1/6 490/1/6
f 491/1/6 492/1/6 493/1/6
f 493/1/6 492/1/6 494/1/6
f 495/4/6 496/4/6 497/4/6
f 497/4/6 496/4/6 498/4/6
f 499/1/6 500/1/6 503/1/6
f 503/1/6 500/1/6 504/1/6
f 501/1/6 502/1/6 505/1/6
f 505/1/6 502/1/6 506/1/6
f 507/3/6 508/3/6 509/3/6
f 509/3/6 508/3/6 510/3/6
f 511/2/6 512/2/6 513/2/6
f 513/2/6 512/2/6 514/2/6
f 515/3/6 516/3/6 517/3/6
f 517/3/6 516/3/6 518/3/6
f 519/2/6 520/2/6 521/2/6
f 521/2/6 520/2/6 522/2/6
f 523/2/6 524/2/6 525/2/6
f 525/2/6 524/2/6 526/2/6
f 527/3/6 528/3/6 529/3/6
f 529/3/6 528/3/6 530/3/6
f 531/2/6 532/2/6 533/2/6
f 533/2/6 532/2/6 534/2/6
f 535/3/6 536/3/6 537/3/6
f 537/3/6 536/3/6 538/3/6
